<?xml version="1.0" standalone="no"?>
<!DOCTYPE svg PUBLIC "-//W3C//DTD SVG 20010904//EN"
 "http://www.w3.org/TR/2001/REC-SVG-20010904/DTD/svg10.dtd">
<svg version="1.0" xmlns="http://www.w3.org/2000/svg"
 width="661.000000pt" height="664.000000pt" viewBox="0 0 661.000000 664.000000"
 preserveAspectRatio="xMidYMid meet">

<g transform="translate(0.000000,664.000000) scale(0.100000,-0.100000)"
fill="#000000" stroke="none">
<path d="M171 6589 c-62 -25 -117 -76 -148 -140 -18 -36 -23 -64 -23 -124 0
-102 22 -147 111 -235 75 -73 121 -156 139 -250 6 -30 15 -190 20 -355 11
-369 26 -448 113 -620 43 -83 122 -169 399 -432 60 -56 108 -106 108 -111 0
-6 -34 -31 -75 -57 -256 -159 -325 -393 -205 -691 18 -44 35 -85 38 -93 4 -12
-10 -13 -89 -6 -195 16 -253 3 -332 -73 -58 -56 -80 -105 -85 -193 -4 -67 -1
-84 21 -132 33 -73 118 -156 245 -240 57 -37 105 -74 108 -82 3 -8 -19 -58
-49 -112 -79 -139 -100 -206 -105 -333 -5 -128 9 -194 78 -370 28 -69 50 -131
50 -138 0 -17 -22 -15 -80 8 -78 31 -161 27 -235 -11 -76 -38 -96 -57 -131
-126 -61 -122 -41 -248 55 -343 87 -86 220 -130 390 -130 174 0 294 52 421
179 123 123 178 268 166 436 -6 97 -22 159 -81 316 -25 66 -45 128 -45 137 0
9 34 85 75 167 87 171 111 259 100 362 -7 69 -25 140 -48 194 l-16 36 41 39
c105 101 158 228 158 381 0 101 -23 190 -75 293 l-25 49 72 50 c177 120 258
264 258 460 0 96 -15 162 -60 256 -54 117 -109 183 -320 385 -105 101 -199
197 -209 214 -34 54 -41 113 -51 401 -10 306 -24 416 -69 549 -53 154 -131
275 -253 392 -86 83 -134 106 -228 111 -59 2 -87 -1 -129 -18z"/>
<path d="M6185 4597 c-137 -66 -264 -244 -314 -439 -19 -75 -30 -155 -51 -401
-22 -248 -124 -407 -331 -516 -271 -143 -367 -274 -357 -485 3 -76 9 -101 36
-156 39 -81 124 -168 217 -223 39 -22 72 -42 74 -44 2 -1 -8 -20 -22 -40 -111
-162 -116 -355 -12 -532 l35 -60 -29 -46 c-16 -25 -37 -75 -46 -110 -43 -157
8 -314 147 -454 l73 -74 -37 -112 c-46 -137 -56 -204 -47 -315 13 -160 75
-295 184 -406 71 -72 162 -122 291 -159 78 -23 103 -25 274 -25 l188 0 48 32
c27 18 61 51 76 73 26 38 27 45 28 168 0 141 -6 161 -62 213 -65 62 -110 77
-253 84 -148 7 -188 20 -193 62 -2 15 12 74 31 130 52 153 60 203 55 315 -5
102 -32 188 -77 252 -12 16 -21 32 -21 35 0 3 32 26 72 51 211 137 281 302
200 467 -55 112 -141 167 -266 169 -28 1 -61 4 -73 7 l-23 7 30 45 c147 219
107 478 -97 632 l-56 43 28 20 c248 178 423 447 479 732 19 101 24 141 36 301
13 172 20 199 81 274 69 85 91 138 92 218 2 163 -112 278 -283 287 -64 3 -82
0 -125 -20z"/>
<path d="M1775 4491 c-46 -12 -97 -38 -137 -71 -77 -64 -117 -207 -84 -300 15
-42 15 -46 -2 -55 -35 -20 -112 -106 -128 -142 -23 -52 -23 -157 0 -218 18
-47 18 -48 0 -58 -42 -22 -112 -105 -128 -152 -20 -62 -21 -148 0 -209 28 -81
154 -186 224 -186 67 0 130 -63 130 -130 -1 -79 -53 -120 -151 -120 -97 0
-154 -23 -221 -90 -45 -45 -60 -69 -74 -115 -30 -105 -4 -220 65 -294 l32 -34
-28 -51 c-23 -44 -27 -63 -28 -131 0 -92 21 -150 74 -201 l32 -32 -30 -54
c-63 -111 -50 -233 36 -328 76 -85 125 -102 313 -108 214 -6 401 25 588 99
501 199 856 623 969 1159 26 123 25 461 -1 580 -71 328 -199 565 -430 796
-185 184 -350 289 -587 372 -158 56 -367 91 -434 73z"/>
<path d="M4610 3143 c-14 -2 -69 -13 -124 -24 -440 -91 -835 -395 -1050 -809
-64 -124 -88 -183 -120 -305 -40 -148 -50 -232 -50 -400 1 -193 19 -313 76
-479 174 -520 564 -880 1103 -1020 125 -33 313 -50 448 -42 132 8 193 32 255
100 62 67 82 116 82 202 0 61 -5 81 -30 129 l-30 56 30 32 c50 53 70 108 70
189 0 56 -6 85 -24 124 -13 28 -29 55 -35 59 -8 4 3 23 33 55 107 114 99 288
-18 405 -61 62 -121 85 -217 85 -59 0 -72 4 -100 27 -45 39 -62 82 -50 135 6
24 20 51 31 60 22 18 81 38 111 38 58 0 151 73 194 151 25 46 29 65 30 129 0
114 -49 199 -154 267 -2 1 4 20 13 43 25 63 21 170 -8 228 -23 45 -105 132
-125 132 -5 0 0 24 11 53 15 39 19 67 15 113 -14 180 -175 298 -367 267z"/>
</g>
</svg>
